<svg xmlns="http://www.w3.org/2000/svg" width="30" height="30" viewBox="0 0 488 488" fill="#6f6c6d">
  <path d="M178 269c0-6-5-11-11-11h-39c-6 0-11 5-11 11v39c0 6 5 11 11 11h39c6 0 11-5 11-11v-39zm96 0c0-6-4-11-11-11h-38c-6 0-11 5-11 11v39c0 6 5 11 11 11h38c7 0 11-5 11-11v-39zm97 0c0-6-5-11-11-11h-39c-6 0-11 5-11 11v39c0 6 5 11 11 11h39c6 0 11-5 11-11v-39zm-193 97c0-6-5-11-11-11h-39c-6 0-11 5-11 11v39c0 6 5 11 11 11h39c6 0 11-5 11-11v-39zm96 0c0-6-4-11-11-11h-38c-6 0-11 5-11 11v39c0 6 5 11 11 11h38c7 0 11-5 11-11v-39zm97 0c0-6-5-11-11-11h-39c-6 0-11 5-11 11v39c0 6 5 11 11 11h39c6 0 11-5 11-11v-39z"/>
  <path d="M440 54v59c0 27-21 49-48 49h-31c-26 0-48-22-48-49V54H175v59c0 27-22 49-48 49H96c-26 0-48-22-48-49V54C25 55 5 74 5 98v346c0 24 20 44 44 44h390c24 0 44-20 44-44V98c0-24-19-43-43-44zm-14 369c0 10-8 19-19 19H80c-10 0-19-9-19-19V244c0-11 9-19 19-19h327c11 0 19 8 19 19v179z"/>
  <path d="M96 130h30c9 0 17-7 17-17V17c0-10-8-17-17-17H96c-9 0-16 7-16 17v96c0 10 7 17 16 17zm265 0h30c9 0 17-7 17-17V17c0-10-8-17-17-17h-30c-9 0-17 7-17 17v96c0 10 8 17 17 17z"/>
</svg>
