<svg xmlns="http://www.w3.org/2000/svg" width="30" height="30" viewBox="0 0 457 457" fill="#6f6c6d">
  <path d="M449 219c-1-2-23-29-61-57-51-38-106-57-160-57-53 0-108 19-159 57-38 27-60 55-61 56l-8 10 8 10c1 1 23 29 61 57 51 37 106 57 159 57 54 0 109-20 160-57 38-28 60-55 61-57l8-10-8-10zm-221 96a87 87 0 0 1-84-108l-19-4a106 106 0 0 0 31 104c-27-10-50-24-67-37a336 336 0 0 1-47-42c9-9 25-25 47-41a281 281 0 0 1 67-37l13 15a87 87 0 1 1 59 150zm140-45a281 281 0 0 1-67 37 106 106 0 0 0 0-157c27 10 50 24 67 37a336 336 0 0 1 47 42 336 336 0 0 1-47 41z"/>
  <path d="M173 212a58 58 0 1 0 16-25l28 32-44-7z"/>
</svg>
