<svg xmlns="http://www.w3.org/2000/svg" width="64" height="64" viewBox="0 0 64 64">
  <g fill="#C5C5C5">
    <path d="M37.6 41.4c-.5 0-1 .3-1.6.8v11c.5.6 1 .8 1.6.8 1 0 1.5-.8 1.5-2.4v-7.7c0-1.6-.5-2.5-1.5-2.5zm12 0c-1 0-1.6.9-1.6 2.5v1.7h3.2V44c0-1.6-.5-2.5-1.6-2.5z"/>
    <path d="M56.4 29c-2-2-4.4-2.1-5.4-2.2-7.6-.6-19-.6-19-.6s-11.3 0-18.8.6c-1 .1-3.4.1-5.4 2.2-1.7 1.7-2.2 5.4-2.2 5.4s-.5 4.3-.5 8.7v4c0 4.4.5 8.7.5 8.7s.5 3.7 2.2 5.3c2 2.2 4.7 2.1 6 2.3 4.2.4 18.3.6 18.3.6s11.3 0 18.9-.6c1-.1 3.3-.1 5.4-2.3 1.6-1.6 2.1-5.3 2.1-5.3s.6-4.3.6-8.7v-4c0-4.4-.6-8.7-.6-8.7s-.5-3.7-2.1-5.4zM17 56.8h-3.7V36H9.5v-3.5h11.4V36h-4v20.8zm12.9 0h-3.3v-2C25.3 56.3 24.1 57 23 57c-1 0-1.8-.4-2.1-1.3-.2-.6-.3-1.4-.3-2.7V38.7h3.2v14.6c.2.5.4.7.8.7.7 0 1.4-.5 2.1-1.5V38.7H30v18zm12.4-5.5c0 1.7 0 3-.3 3.7-.4 1.3-1.3 2-2.6 2-1.2 0-2.3-.6-3.4-2v1.8h-3.3V32.5H36v8c1-1.3 2.2-2 3.4-2 1.3 0 2.2.7 2.6 2 .2.8.3 2 .3 3.7v7.1zm12.2-3H48v3.2c0 1.7.5 2.5 1.6 2.5.8 0 1.3-.4 1.5-1.3v-2.2h3.4V53c-.2.8-.4 1.5-.8 2-1 1.4-2.3 2-4 2-1.7 0-3-.6-4-1.8-.6-1-1-2.4-1-4.3v-6.3c0-2 .3-3.3 1-4.3 1-1.2 2.3-1.8 4-1.8 1.6 0 2.9.6 3.8 1.8.7 1 1 2.4 1 4.3v3.7zM23.4 24.4v-9.9L27.8 0h-3.7l-2.5 9.6L19 0h-3.8l2.3 6.8c1.2 3.4 2 6 2.3 7.7v10h3.6zm8.6.3c1.7 0 3-.6 3.9-1.9.7-.9 1-2.3 1-4.3v-6.4c0-1.9-.3-3.3-1-4.2a4.5 4.5 0 0 0-3.9-2c-1.6 0-2.9.7-3.8 2-.7.9-1 2.3-1 4.2v6.4c0 2 .3 3.4 1 4.3a4.4 4.4 0 0 0 3.8 1.9zm-1.5-13.2C30.5 9.8 31 9 32 9c1.1 0 1.6.8 1.6 2.5v7.7c0 1.6-.5 2.5-1.6 2.5-1 0-1.5-.9-1.5-2.5v-7.7zM49 24.4V6.2h-3.3v14c-.8 1-1.4 1.5-2.1 1.5-.5 0-.7-.3-.8-.8V6.2h-3.3v14.4c0 1.3 0 2.2.3 2.7.3 1 1 1.4 2.1 1.4 1.2 0 2.5-.7 3.8-2.3v2H49z"/>
  </g>
</svg>
