<svg xmlns="http://www.w3.org/2000/svg" width="408" height="408" version="1" viewBox="0 0 408 408">
  <g id="root">
    <path d="M88 389c0 11 9 19 20 19h192c11 0 20-8 21-19l13-290H74l14 290zm160-218c0-4 3-8 8-8h13c5 0 9 4 9 8v166c0 4-4 8-9 8h-13c-5 0-8-4-8-8V171zm-59 0c0-4 4-8 9-8h13c5 0 8 4 8 8v166c0 4-3 8-8 8h-13c-5 0-9-4-9-8V171zm-58 0c0-4 4-8 8-8h13c5 0 9 4 9 8v166c0 4-4 8-9 8h-13c-4 0-8-4-8-8V171zM344 21h-89V4c0-2-2-4-4-4h-93c-3 0-5 2-5 4v17H65c-7 0-13 6-13 13v40h304V34c0-7-5-13-12-13z"/>
  </g>
</svg>
